<svg width="128" height="128" viewBox="0 0 128 128" fill="none" xmlns="http://www.w3.org/2000/svg">
<rect x="2.5" y="2.5" width="123" height="123" rx="27.5" fill="#0F0F0F" stroke="url(#paint0_linear_0_1)" stroke-width="5"/>
<path fill-rule="evenodd" clip-rule="evenodd" d="M63.5 42.25C63.5 41.0894 63.5 40.509 63.5241 40.0186C64.0288 29.7446 72.2446 21.5288 82.5186 21.0241C83.009 21 83.5894 21 84.75 21H97.5C100.773 21 102.41 21 103.612 21.7368C104.285 22.1491 104.851 22.7147 105.263 23.3875C106 24.5899 106 26.2266 106 29.5V42.25C106 43.4106 106 43.991 105.976 44.4814C105.471 54.7554 97.2554 62.9712 86.9814 63.4759C86.5213 63.4985 85.9821 63.4999 84.9588 63.5C85.9821 63.5001 86.5213 63.5015 86.9814 63.5241C97.2554 64.0288 105.471 72.2446 105.976 82.5186C106 83.009 106 83.5893 106 84.75V97.5C106 100.773 106 102.41 105.263 103.612C104.851 104.285 104.285 104.851 103.612 105.263C102.41 106 100.773 106 97.5 106H84.75C83.5894 106 83.009 106 82.5186 105.976C72.2446 105.471 64.0288 97.2554 63.5241 86.9813C63.5 86.491 63.5 85.9106 63.5 84.75C63.5 83.5893 63.5 83.009 63.5241 82.5186C64.0288 72.2446 72.2446 64.0288 82.5186 63.5241C82.9787 63.5015 83.5179 63.5001 84.5412 63.5C83.5179 63.4999 82.9787 63.4985 82.5186 63.4759C72.2446 62.9712 64.0288 54.7554 63.5241 44.4814C63.5 43.991 63.5 43.4106 63.5 42.25ZM42.4588 63.5C43.4821 63.5001 44.0213 63.5015 44.4814 63.5241C54.7554 64.0288 62.9712 72.2446 63.4759 82.5186C63.5 83.009 63.5 83.5893 63.5 84.75C63.5 85.9106 63.5 86.491 63.4759 86.9813C62.9712 97.2554 54.7554 105.471 44.4814 105.976C43.991 106 43.4106 106 42.25 106H29.5C26.2266 106 24.5899 106 23.3875 105.263C22.7147 104.851 22.1491 104.285 21.7368 103.612C21 102.41 21 100.773 21 97.5V84.75C21 83.5893 21 83.009 21.0241 82.5186C21.5288 72.2446 29.7446 64.0288 40.0186 63.5241C40.4787 63.5015 41.0179 63.5001 42.0412 63.5C41.0179 63.4999 40.4787 63.4985 40.0186 63.4759C29.7446 62.9712 21.5288 54.7554 21.0241 44.4814C21 43.991 21 43.4106 21 42.25V29.5C21 26.2266 21 24.5899 21.7368 23.3875C22.1491 22.7147 22.7147 22.1491 23.3875 21.7368C24.5899 21 26.2266 21 29.5 21H42.25C43.4106 21 43.991 21 44.4814 21.0241C54.7554 21.5288 62.9712 29.7446 63.4759 40.0186C63.5 40.509 63.5 41.0894 63.5 42.25C63.5 43.4106 63.5 43.991 63.4759 44.4814C62.9712 54.7554 54.7554 62.9712 44.4814 63.4759C44.0213 63.4985 43.4821 63.4999 42.4588 63.5Z" fill="url(#paint1_linear_0_1)"/>
<defs>
<linearGradient id="paint0_linear_0_1" x1="0" y1="0" x2="128" y2="128" gradientUnits="userSpaceOnUse">
<stop stop-color="#FF00FF"/>
<stop offset="1" stop-color="#FF0000"/>
</linearGradient>
<linearGradient id="paint1_linear_0_1" x1="21" y1="21" x2="106" y2="106" gradientUnits="userSpaceOnUse">
<stop stop-color="#FFAA00"/>
<stop offset="1" stop-color="#FF0000"/>
</linearGradient>
</defs>
</svg>
