<?xml version="1.0" encoding="UTF-8" standalone="no"?>
<!-- Created with Inkscape (http://www.inkscape.org/) -->

<svg
   version="1.1"
   id="svg2"
   width="116"
   height="116"
   viewBox="0 0 116 116"
   sodipodi:docname="close-press.eps"
   xmlns:inkscape="http://www.inkscape.org/namespaces/inkscape"
   xmlns:sodipodi="http://sodipodi.sourceforge.net/DTD/sodipodi-0.dtd"
   xmlns="http://www.w3.org/2000/svg"
   xmlns:svg="http://www.w3.org/2000/svg">
  <defs
     id="defs6" />
  <sodipodi:namedview
     id="namedview4"
     pagecolor="#ffffff"
     bordercolor="#000000"
     borderopacity="0.25"
     inkscape:showpageshadow="2"
     inkscape:pageopacity="0.0"
     inkscape:pagecheckerboard="0"
     inkscape:deskcolor="#d1d1d1" />
  <g
     id="g8"
     inkscape:groupmode="layer"
     inkscape:label="ink_ext_XXXXXX"
     transform="matrix(1.3333333,0,0,-1.3333333,0,116)">
    <g
       id="g10"
       transform="scale(0.1)">
      <path
         d="M 433,9.64453 C 669.059,9.64453 860.426,201.012 860.426,437.07 860.426,673.133 669.059,864.5 433,864.5 196.934,864.5 5.56641,673.133 5.56641,437.07 5.56641,201.012 196.934,9.64453 433,9.64453"
         style="fill:#d52735;fill-opacity:1;fill-rule:evenodd;stroke:none"
         id="path12" />
      <path
         d="M 433,45.9961 C 648.98,45.9961 824.07,221.09 824.07,437.07 824.07,653.059 648.98,828.148 433,828.148 217.012,828.148 41.9219,653.059 41.9219,437.07 41.9219,221.09 217.012,45.9961 433,45.9961"
         style="fill:#d52735;fill-opacity:1;fill-rule:evenodd;stroke:none"
         id="path14" />
      <path
         d="m 231.395,285.789 352.886,352.883 c 13.657,13.66 36,13.66 49.664,0 l 0.653,-0.656 c 13.66,-13.657 13.66,-36.004 0.004,-49.661 L 281.715,235.473 c -13.66,-13.66 -36.004,-13.66 -49.66,0 l -0.66,0.652 c -13.657,13.66 -13.657,36.004 0,49.664"
         style="fill:#9f1d2b;fill-opacity:1;fill-rule:evenodd;stroke:none"
         id="path16" />
      <path
         d="M 281.715,638.672 634.598,285.789 c 13.656,-13.656 13.656,-36.004 0,-49.664 l -0.657,-0.652 c -13.66,-13.66 -36.003,-13.66 -49.66,0 L 231.395,588.355 c -13.661,13.657 -13.661,36.004 0,49.661 l 0.656,0.656 c 13.66,13.66 36.004,13.66 49.664,0"
         style="fill:#9f1d2b;fill-opacity:1;fill-rule:evenodd;stroke:none"
         id="path18" />
    </g>
  </g>
</svg>
