<svg width="116" height="115" viewBox="0 0 116 115" fill="none" xmlns="http://www.w3.org/2000/svg">
<g clip-path="url(#clip0_1_2)">
<path fill-rule="evenodd" clip-rule="evenodd" d="M57.7333 114.087C89.2079 114.087 114.723 88.5713 114.723 57.0964C114.723 25.6213 89.2079 0.10574 57.7333 0.10574C26.2579 0.10574 0.742188 25.6213 0.742188 57.0964C0.742188 88.5713 26.2579 114.087 57.7333 114.087Z" fill="#D52735"/>
<path fill-rule="evenodd" clip-rule="evenodd" d="M57.7333 109.24C86.5307 109.24 109.876 85.8943 109.876 57.0964C109.876 28.2984 86.5307 4.95308 57.7333 4.95308C28.9349 4.95308 5.5896 28.2984 5.5896 57.0964C5.5896 85.8943 28.9349 109.24 57.7333 109.24Z" fill="#F25056"/>
<path fill-rule="evenodd" clip-rule="evenodd" d="M30.8526 77.2677L77.9041 30.2161C79.725 28.3953 82.7041 28.3953 84.526 30.2161L84.613 30.3041C86.4344 32.1249 86.4344 35.1041 84.6136 36.9255L37.562 83.9765C35.7406 85.7979 32.7614 85.7979 30.9406 83.9765L30.8526 83.8896C29.0317 82.0683 29.0317 79.0885 30.8526 77.2677Z" fill="#9F1D2B"/>
<path fill-rule="evenodd" clip-rule="evenodd" d="M37.562 30.2161L84.6131 77.2677C86.4339 79.0885 86.4339 82.0683 84.6131 83.8891L84.5255 83.9765C82.7041 85.7979 79.7251 85.7979 77.9041 83.9765L30.8527 36.9255C29.0312 35.1041 29.0312 32.1249 30.8527 30.3036L30.9401 30.2161C32.7615 28.3948 35.7407 28.3948 37.562 30.2161Z" fill="#9F1D2B"/>
</g>
<defs>
<clipPath id="clip0_1_2">
<rect width="116" height="114.667" fill="white"/>
</clipPath>
</defs>
</svg>
