<svg width="116" height="116" viewBox="0 0 116 116" fill="none" xmlns="http://www.w3.org/2000/svg">
<path fill-rule="evenodd" clip-rule="evenodd" d="M57.7333 114.714C89.2079 114.714 114.723 89.1984 114.723 57.724C114.723 26.2489 89.2079 0.733328 57.7333 0.733328C26.2579 0.733328 0.742188 26.2489 0.742188 57.724C0.742188 89.1984 26.2579 114.714 57.7333 114.714Z" fill="#D52735"/>
<path fill-rule="evenodd" clip-rule="evenodd" d="M57.7333 109.867C86.5307 109.867 109.876 86.5213 109.876 57.724C109.876 28.9255 86.5307 5.58026 57.7333 5.58026C28.9349 5.58026 5.5896 28.9255 5.5896 57.724C5.5896 86.5213 28.9349 109.867 57.7333 109.867Z" fill="#D52735"/>
<path fill-rule="evenodd" clip-rule="evenodd" d="M30.8527 77.8948L77.9041 30.8437C79.7251 29.0224 82.7041 29.0224 84.526 30.8437L84.6131 30.9312C86.4344 32.7521 86.4344 35.7317 84.6136 37.5527L37.562 84.6036C35.7407 86.4249 32.7615 86.4249 30.9407 84.6036L30.8527 84.5167C29.0317 82.6953 29.0317 79.7161 30.8527 77.8948Z" fill="#9F1D2B"/>
<path fill-rule="evenodd" clip-rule="evenodd" d="M37.562 30.8437L84.6131 77.8948C86.4339 79.7156 86.4339 82.6953 84.6131 84.5167L84.5255 84.6036C82.7041 86.4249 79.7251 86.4249 77.9041 84.6036L30.8527 37.5527C29.0312 35.7317 29.0312 32.7521 30.8527 30.9312L30.9401 30.8437C32.7615 29.0224 35.7407 29.0224 37.562 30.8437Z" fill="#9F1D2B"/>
</svg>
