<svg width="116" height="116" viewBox="0 0 116 116" fill="none" xmlns="http://www.w3.org/2000/svg">
<path fill-rule="evenodd" clip-rule="evenodd" d="M58.2672 114.714C89.7417 114.714 115.257 89.1984 115.257 57.724C115.257 26.2489 89.7417 0.733343 58.2672 0.733343C26.7917 0.733343 1.27603 26.2489 1.27603 57.724C1.27603 89.1984 26.7917 114.714 58.2672 114.714Z" fill="#D86323"/>
<path fill-rule="evenodd" clip-rule="evenodd" d="M58.2672 109.867C87.0651 109.867 110.41 86.5213 110.41 57.724C110.41 28.9255 87.0651 5.58026 58.2672 5.58026C29.4688 5.58026 6.12344 28.9255 6.12344 57.724C6.12344 86.5213 29.4688 109.867 58.2672 109.867Z" fill="#D86323"/>
<path fill-rule="evenodd" clip-rule="evenodd" d="M42.8489 28.6432H78.4755C83.2193 28.6432 87.1011 32.5245 87.1011 37.2688V72.8948L42.8489 28.6432ZM73.8255 86.8041H38.0584C33.314 86.8041 29.4328 82.9229 29.4328 78.1787V42.4115L73.8255 86.8041Z" fill="#9B3B20"/>
</svg>
