<svg width="116" height="115" viewBox="0 0 116 115" fill="none" xmlns="http://www.w3.org/2000/svg">
<g clip-path="url(#clip0_1_26)">
<path fill-rule="evenodd" clip-rule="evenodd" d="M58.2672 114.087C89.7418 114.087 115.257 88.5713 115.257 57.0964C115.257 25.6213 89.7418 0.10574 58.2672 0.10574C26.7918 0.10574 1.27606 25.6213 1.27606 57.0964C1.27606 88.5713 26.7918 114.087 58.2672 114.087Z" fill="#D86323"/>
<path fill-rule="evenodd" clip-rule="evenodd" d="M58.2672 109.24C87.0651 109.24 110.41 85.8943 110.41 57.0964C110.41 28.2984 87.0651 4.95307 58.2672 4.95307C29.4688 4.95307 6.12347 28.2984 6.12347 57.0964C6.12347 85.8943 29.4688 109.24 58.2672 109.24Z" fill="#F68B46"/>
<path fill-rule="evenodd" clip-rule="evenodd" d="M42.8489 28.0156H78.4755C83.2193 28.0156 87.1011 31.8973 87.1011 36.6416V72.2677L42.8489 28.0156ZM73.8255 86.1771H38.0584C33.314 86.1771 29.4328 82.2959 29.4328 77.5516V41.7844L73.8255 86.1771Z" fill="#9B3B20"/>
</g>
<defs>
<clipPath id="clip0_1_26">
<rect width="116" height="114.667" fill="white"/>
</clipPath>
</defs>
</svg>
