<svg width="116" height="116" viewBox="0 0 116 116" fill="none" xmlns="http://www.w3.org/2000/svg">
<path fill-rule="evenodd" clip-rule="evenodd" d="M58.1109 114.714C89.5864 114.714 115.102 89.1984 115.102 57.724C115.102 26.2489 89.5864 0.733343 58.1109 0.733343C26.636 0.733343 1.1203 26.2489 1.1203 57.724C1.1203 89.1984 26.636 114.714 58.1109 114.714Z" fill="#DA9E10"/>
<path fill-rule="evenodd" clip-rule="evenodd" d="M58.1109 109.867C86.9093 109.867 110.255 86.5213 110.255 57.724C110.255 28.9255 86.9093 5.58026 58.1109 5.58026C29.313 5.58026 5.96768 28.9255 5.96768 57.724C5.96768 86.5213 29.313 109.867 58.1109 109.867Z" fill="#DA9E10"/>
<path fill-rule="evenodd" clip-rule="evenodd" d="M24.8406 52.9797H91.3817C93.9568 52.9797 96.0636 55.0864 96.0636 57.662V57.786C96.0636 60.3615 93.9568 62.4677 91.3817 62.4677H24.8406C22.265 62.4677 20.1588 60.3615 20.1588 57.786V57.662C20.1588 55.0864 22.265 52.9797 24.8406 52.9797Z" fill="#975914"/>
</svg>
