<svg width="116" height="115" viewBox="0 0 116 115" fill="none" xmlns="http://www.w3.org/2000/svg">
<path fill-rule="evenodd" clip-rule="evenodd" d="M56.9906 113.981C88.4657 113.981 113.981 88.4652 113.981 56.9901C113.981 25.5156 88.4657 -1.87555e-06 56.9906 -1.87555e-06C25.5157 -1.87555e-06 0 25.5156 0 56.9901C0 88.4652 25.5157 113.981 56.9906 113.981Z" fill="#DA9E10"/>
<path fill-rule="evenodd" clip-rule="evenodd" d="M56.9906 109.134C85.7886 109.134 109.134 85.7885 109.134 56.9901C109.134 28.1923 85.7886 4.84693 56.9906 4.84693C28.1927 4.84693 4.84686 28.1923 4.84686 56.9901C4.84686 85.7885 28.1927 109.134 56.9906 109.134Z" fill="#FAC536"/>
<path fill-rule="evenodd" clip-rule="evenodd" d="M23.7204 52.2464H90.261C92.8365 52.2464 94.9433 54.3527 94.9433 56.9287V57.0521C94.9433 59.6281 92.8365 61.7344 90.261 61.7344H23.7204C21.1448 61.7344 19.0381 59.6281 19.0381 57.0521V56.9287C19.0381 54.3527 21.1448 52.2464 23.7204 52.2464Z" fill="#975914"/>
</svg>
