<svg width="465" height="464" viewBox="0 0 465 464" fill="none" xmlns="http://www.w3.org/2000/svg">
<path d="M410.247 114.643L244.466 18.9287C236.731 14.4629 227.201 14.4628 219.466 18.9287L53.6841 114.643C45.9491 119.108 41.1841 127.362 41.1841 136.293V327.721C41.1841 336.653 45.949 344.906 53.6841 349.372L219.466 445.086C227.201 449.552 236.73 449.552 244.466 445.086L410.247 349.372C417.982 344.906 422.747 336.653 422.747 327.721V136.293C422.747 127.362 417.982 119.108 410.247 114.643Z" fill="black" stroke="url(#paint0_linear_2077_321)" stroke-width="30"/>
<path fill-rule="evenodd" clip-rule="evenodd" d="M232.142 389.74L232.142 232.809L368.047 154.344L368.047 311.275L232.142 389.74Z" fill="#FF3900"/>
<path fill-rule="evenodd" clip-rule="evenodd" d="M232.141 389.74L96.2357 311.275V154.344L232.141 232.809V389.74Z" fill="#FF7100"/>
<path fill-rule="evenodd" clip-rule="evenodd" d="M232.141 75.8792L368.047 154.344L232.141 232.809L232.141 232.81L232.141 232.81L96.2357 154.344L232.141 75.8793L232.141 75.8792L232.141 75.8792Z" fill="#FFAA00"/>
<defs>
<linearGradient id="paint0_linear_2077_321" x1="231.966" y1="29.0323" x2="231.966" y2="434.982" gradientUnits="userSpaceOnUse">
<stop stop-color="#FF00AA"/>
<stop stop-color="#FF00AA"/>
<stop offset="1" stop-color="#FF0000"/>
</linearGradient>
</defs>
</svg>
